<svg width="43" height="43" viewBox="0 0 43 43" fill="none" xmlns="http://www.w3.org/2000/svg">
<path d="M16.8153 6.17456C17.3504 6.70963 17.4819 7.52756 17.1415 8.20338C16.254 9.96553 15.7534 11.957 15.7534 14.0705C15.7534 21.2851 21.6019 27.1337 28.8165 27.1337C30.93 27.1337 32.9215 26.6331 34.6837 25.7456C35.3595 25.4052 36.1774 25.5367 36.7125 26.0718C37.2475 26.6068 37.3791 27.4248 37.0387 28.1006C34.3144 33.5095 28.7084 37.2262 22.2313 37.2262C13.0797 37.2262 5.66089 29.8073 5.66089 20.6558C5.66089 14.1786 9.37753 8.57263 14.7865 5.84837C15.4623 5.50799 16.2802 5.63949 16.8153 6.17456ZM12.3627 12.096C10.3718 14.3894 9.16813 17.3827 9.16813 20.6558C9.16813 27.8703 15.0167 33.7189 22.2313 33.7189C25.5044 33.7189 28.4976 32.5153 30.791 30.5243C30.1433 30.6013 29.4844 30.6409 28.8165 30.6409C19.6649 30.6409 12.2461 23.2221 12.2461 14.0705C12.2461 13.4027 12.2857 12.7437 12.3627 12.096Z" fill="white"/>
</svg>
