<svg width="29" height="29" viewBox="0 0 29 29" fill="none" xmlns="http://www.w3.org/2000/svg">
<path d="M14.4999 0C15.3007 0 15.9499 0.649188 15.9499 1.45V2.89999C15.9499 3.70081 15.3007 4.35 14.4999 4.35C13.6991 4.35 13.0499 3.70081 13.0499 2.89999V1.45C13.0499 0.649188 13.6991 0 14.4999 0ZM24.753 4.24693C25.3194 4.81319 25.3194 5.73129 24.753 6.29755L23.7277 7.32286C23.1615 7.8891 22.2434 7.8891 21.6771 7.32286C21.1109 6.7566 21.1109 5.8385 21.6771 5.27224L22.7024 4.24693C23.2687 3.68069 24.1868 3.68069 24.753 4.24693ZM4.24692 4.24693C4.81318 3.68069 5.73127 3.68069 6.29753 4.24693L7.32282 5.27224C7.88908 5.8385 7.88908 6.7566 7.32282 7.32286C6.75655 7.8891 5.83849 7.8891 5.27223 7.32286L4.24692 6.29755C3.68066 5.73129 3.68066 4.81319 4.24692 4.24693ZM14.4999 8.7C11.2967 8.7 8.69995 11.2967 8.69995 14.5C8.69995 17.7032 11.2967 20.3 14.4999 20.3C17.7032 20.3 20.2999 17.7032 20.2999 14.5C20.2999 11.2967 17.7032 8.7 14.4999 8.7ZM5.79997 14.5C5.79997 9.69512 9.69509 5.80001 14.4999 5.80001C19.3048 5.80001 23.1999 9.69512 23.1999 14.5C23.1999 19.3049 19.3048 23.2 14.4999 23.2C9.69509 23.2 5.79997 19.3049 5.79997 14.5ZM0 14.5C0 13.6992 0.649182 13.05 1.44999 13.05H2.89998C3.7008 13.05 4.34999 13.6992 4.34999 14.5C4.34999 15.3008 3.7008 15.95 2.89998 15.95H1.44999C0.649182 15.95 0 15.3008 0 14.5ZM24.6499 14.5C24.6499 13.6992 25.299 13.05 26.0998 13.05H27.5499C28.3506 13.05 29 13.6992 29 14.5C29 15.3008 28.3506 15.95 27.5499 15.95H26.0998C25.299 15.95 24.6499 15.3008 24.6499 14.5ZM5.27223 21.6771C5.83849 21.1108 6.75658 21.1108 7.32282 21.6771C7.88908 22.2434 7.88908 23.1615 7.32282 23.7277L6.29753 24.753C5.73127 25.3193 4.81318 25.3193 4.24692 24.753C3.68066 24.1868 3.68066 23.2687 4.24692 22.7024L5.27223 21.6771ZM21.6771 23.7277C21.1109 23.1615 21.1109 22.2434 21.6771 21.6771C22.2434 21.1109 23.1615 21.1109 23.7277 21.6771L24.753 22.7024C25.3194 23.2687 25.3194 24.1868 24.753 24.753C24.1868 25.3193 23.2687 25.3193 22.7024 24.753L21.6771 23.7277ZM14.4999 24.65C15.3007 24.65 15.9499 25.2992 15.9499 26.1V27.5499C15.9499 28.3509 15.3007 29 14.4999 29C13.6991 29 13.0499 28.3509 13.0499 27.5499V26.1C13.0499 25.2992 13.6991 24.65 14.4999 24.65Z" fill="white"/>
</svg>
